<svg width="24" height="25" viewBox="0 0 24 25" fill="none" xmlns="http://www.w3.org/2000/svg">
<path d="M15.7723 3.87516L8.93649 10.7091L8.78961 10.8559L8.79 11.0636L8.798 15.3106L8.79894 15.8105L9.29883 15.8097L13.5368 15.8027L13.7435 15.8023L13.8896 15.6562L20.7207 8.8242C21.2355 10.0125 21.5017 11.2962 21.5 12.596V12.5967C21.5 17.8435 17.2469 22.0967 12 22.0967C6.75314 22.0967 2.5 17.8435 2.5 12.5967C2.5 7.34983 6.75314 3.09669 12 3.09669L12.0007 3.09669C13.3004 3.09483 14.584 3.36078 15.7723 3.87516ZM20.4849 3.40394L21.192 4.11156L12.4995 12.8041L11.7943 12.8056L11.7933 12.0965L20.4849 3.40394Z" fill="white" stroke="white"/>
</svg>
